{"title":"Dark.Was.the.Night.2014.WEBRiP.XViD.AC3.5.1.ReLeNTLesS","uid":12155420,"size":1283396683,"categoryP":"video","categoryS":"movies","magnet":"?xt=urn:btih:d6e13171ddbb6ca03161bbaf8fa098ce691012e9&amp;dn=Dark.Was.the.Night.2014.WEBRiP.XViD.AC3.5.1.ReLeNTLesS&amp;tr=udp%3A%2F%2Ftracker.openbittorrent.com%3A80&amp;tr=udp%3A%2F%2Fopen.demonii.com%3A1337&amp;tr=udp%3A%2F%2Ftracker.coppersurfer.tk%3A6969&amp;tr=udp%3A%2F%2Fexodus.desync.com%3A6969","seeders":0,"leechers":0,"uploader":"TvTeam","files":4,"time":1437773930,"description":"------------------------------------------------------------------------\n\n &lt;a href=&quot; https://www.torrenting.com&quot; rel=&quot;nofollow&quot; target=&quot;_NEW&quot;&gt; https://www.torrenting.com&lt;/a&gt;\n\nSign up is OPEN - for time being. Come and have fun\n\n.......................................................................................................................P0STER\n[img]http://s28.postimg.org/uaeiyxr59/dark.png[/img]\n\niMDB: http://www.imdb.com/title/tt2251281/\n\nGeneral\nComplete name               : Dark.Was.the.Night.2014.WEBRiP.XViD.AC3.5.1.ReLeNTLesS.avi\nFormat                      : AVI\nFormat/Info                 : Audio Video Interleave\nFile size                   : 1.18 GiB\nDuration                    : 1h 38mn\nOverall bit rate            : 1 718 Kbps\n\nVideo\nID                          : 0\nFormat                      : MPEG-4 Visual\nFormat profile              : Advanced Simple@L5\nFormat settings, BVOP       : 1\nFormat settings, QPel       : No\nFormat settings, GMC        : No warppoints\nFormat settings, Matrix     : Default (H.263)\nMuxing mode                 : Packed bitstream\nCodec ID                    : XVID\nCodec ID/Hint               : XviD\nDuration                    : 1h 38mn\nBit rate                    : 1 518 Kbps\nWidth                       : 720 pixels\nHeight                      : 304 pixels\nDisplay aspect ratio        : 2.35:1\nFrame rate                  : 23.976 fps\nColor space                 : YUV\nChroma subsampling          : 4:2:0\nBit depth                   : 8 bits\nScan type                   : Progressive\nCompression mode            : Lossy\nBits/(Pixel*Frame)          : 0.289\nStream size                 : 1.04 GiB (88%)\nWriting library             : XviD 1.2.1 (UTC 2008-12-04)\n\nAudio\nID                          : 1\nFormat                      : AC-3\nFormat/Info                 : Audio Coding 3\nMode extension              : CM (complete main)\nFormat settings, Endianness : Big\nCodec ID                    : 2000\nDuration                    : 1h 38mn\nBit rate mode               : Constant\nBit rate                    : 192 Kbps\nChannel(s)                  : 6 channels\nChannel positions           : Front: L C R, Side: L R, LFE\nSampling rate               : 48.0 KHz\nCompression mode            : Lossy\nStream size                 : 135 MiB (11%)\nAlignment                   : Aligned on interleaves\nInterleave, duration        : 64 ms (1.53 video frames)\nInterleave, preload duratio : 192 ms\nTitle                       : Dark.Was.the.Night.2014.ReLeNTLesS.Audio.AC3.5.1.English_new\nSample Included             : Yes\nSource                      : PLAYNOW Thanks again :)\n\nPL0T\nAn evil is unleashed in a small town when a logging company sets up shop in the neighboring woods.\n\nCAST\nDirector: Jack Heller\nWriter: Tyler Hisel\nStars: Steve Agee, Nick Damici, Kevin Durand\n\nN0TE\nThe director seems to have opted for a blue filter for outside daylight scence, I suppose to convey cold or sumit anywho, sample cuts across\nboth inside and outside shots. Sharpend a tad, degrained and muxed audio. enjoy.\n\nSCREENS\n[img]http://s22.postimg.org/ah689rkc1/Untitled_1_Copy.png[/img]\n[img]http://s22.postimg.org/hulm8q4dt/Untitled_2_Copy.png[/img]\n[img]http://s22.postimg.org/p1nb4lfap/Untitled_3_Copy.png[/img]\n[img]http://s22.postimg.org/t4ec3o9f5/Untitled_4_Copy.png[/img]\n[img]http://s22.postimg.org/adcetieup/Untitled_5_Copy.png[/img]\n[img]http://s22.postimg.org/3pft6wvch/Untitled_6_Copy.png[/img]\n\nTRAiLER\n\nGREETZ\n\n\nHIVE-CM8, Blackjesus, M0RPH, M00SE, MiLLENiUM,\n\nMANiX, TiTAN, Anonymous, TuX, \n\nACAB, KingStoner, FooKas, 4PlayHD, \n\nGodFather, Cld.... \n\nKeep up the good work guyz","torrent":{"xt":"urn:btih:d6e13171ddbb6ca03161bbaf8fa098ce691012e9","amp;dn":"Dark.Was.the.Night.2014.WEBRiP.XViD.AC3.5.1.ReLeNTLesS","amp;tr":["udp%3A%2F%2Ftracker.openbittorrent.com%3A80","udp%3A%2F%2Fopen.demonii.com%3A1337","udp%3A%2F%2Ftracker.coppersurfer.tk%3A6969","udp%3A%2F%2Fexodus.desync.com%3A6969"],"infoHash":"d6e13171ddbb6ca03161bbaf8fa098ce691012e9","infoHashBuffer":{"type":"Buffer","data":[214,225,49,113,221,187,108,160,49,97,187,175,143,160,152,206,105,16,18,233]},"announce":[],"urlList":[]}}